<svg width="512" height="512" viewBox="0 0 512 512" fill="none" xmlns="http://www.w3.org/2000/svg">
  <defs>
    <linearGradient id="bg" x1="0" y1="0" x2="1" y2="1">
      <stop offset="0%" stop-color="#0B1626"/>
      <stop offset="100%" stop-color="#0F766E"/>
    </linearGradient>
    <linearGradient id="accent" x1="0" y1="0" x2="1" y2="1">
      <stop offset="0%" stop-color="#9EF4E6"/>
      <stop offset="100%" stop-color="#4CC5B9"/>
    </linearGradient>
  </defs>
  <rect x="28" y="28" width="456" height="456" rx="120" fill="url(#bg)"/>
  <rect x="48" y="48" width="416" height="416" rx="104" stroke="#0EF1C0" stroke-opacity="0.15" stroke-width="10"/>
  <rect x="80" y="80" width="128" height="128" rx="30" fill="#0B1626" stroke="url(#accent)" stroke-width="12"/>
  <rect x="304" y="80" width="128" height="128" rx="30" fill="#0B1626" stroke="url(#accent)" stroke-width="12"/>
  <rect x="80" y="304" width="128" height="128" rx="30" fill="#0B1626" stroke="url(#accent)" stroke-width="12"/>
  <rect x="304" y="304" width="128" height="128" rx="30" fill="#0B1626" stroke="url(#accent)" stroke-width="12"/>

  <rect x="214" y="214" width="40" height="40" rx="12" fill="url(#accent)"/>
  <rect x="262" y="214" width="40" height="40" rx="12" fill="#0B1626" stroke="#4CC5B9" stroke-width="4"/>
  <rect x="214" y="262" width="40" height="40" rx="12" fill="#0B1626" stroke="#4CC5B9" stroke-width="4"/>
  <rect x="262" y="262" width="40" height="40" rx="12" fill="url(#accent)"/>
  <circle cx="256" cy="256" r="16" fill="#0B1626" stroke="#9EF4E6" stroke-width="6"/>

  <circle cx="144" cy="144" r="12" fill="#9EF4E6"/>
  <circle cx="368" cy="144" r="12" fill="#9EF4E6"/>
  <circle cx="144" cy="368" r="12" fill="#9EF4E6"/>
  <circle cx="368" cy="368" r="12" fill="#9EF4E6"/>
</svg>
