<svg width="512" height="512" viewBox="0 0 512 512" fill="none" xmlns="http://www.w3.org/2000/svg">
  <rect x="32" y="32" width="448" height="448" rx="96" fill="#fff" stroke="#222" stroke-width="16"/>
  <!-- QR code motif -->
  <rect x="120" y="120" width="56" height="56" rx="12" fill="#222"/>
  <rect x="120" y="200" width="32" height="32" rx="8" fill="#222"/>
  <rect x="200" y="120" width="32" height="32" rx="8" fill="#222"/>
  <rect x="200" y="200" width="56" height="56" rx="12" fill="#222"/>
  <rect x="160" y="160" width="24" height="24" rx="6" fill="#2196F3"/>
  <!-- Camera lens -->
  <circle cx="340" cy="180" r="48" fill="#2196F3" stroke="#222" stroke-width="10"/>
  <circle cx="340" cy="180" r="20" fill="#fff"/>
  <!-- Camera body -->
  <rect x="292" y="140" width="96" height="56" rx="18" fill="#222"/>
  <!-- Flash -->
  <rect x="370" y="130" width="18" height="12" rx="4" fill="#fff"/>
  <!-- Decorative QR squares -->
  <rect x="120" y="320" width="32" height="32" rx="8" fill="#222"/>
  <rect x="200" y="320" width="56" height="56" rx="12" fill="#222"/>
  <rect x="160" y="360" width="24" height="24" rx="6" fill="#2196F3"/>
  <rect x="320" y="320" width="32" height="32" rx="8" fill="#222"/>
  <rect x="360" y="360" width="24" height="24" rx="6" fill="#2196F3"/>
</svg>